<svg width="26" height="22" viewBox="0 0 26 22" fill="none" xmlns="http://www.w3.org/2000/svg">
<rect width="22" height="22" fill="#F3F3F3"/>
<path d="M11 22C7.72441 22 5.05957 19.3351 5.05957 16.0596C5.05957 12.784 7.72441 10.1191 11 10.1191C12.0226 10.1191 13.0312 10.3834 13.9169 10.8836C14.2191 11.0542 14.3258 11.4375 14.1552 11.7398C13.9845 12.042 13.601 12.1486 13.2989 11.978C12.6014 11.5842 11.8065 11.3761 11 11.3761C8.41745 11.3761 6.31641 13.4771 6.31641 16.0597C6.31641 18.6422 8.41749 20.7432 11 20.7432C13.5824 20.7432 15.6835 18.6422 15.6835 16.0596C15.6835 15.7126 15.9649 15.4312 16.3119 15.4312C16.6589 15.4312 16.9403 15.7126 16.9403 16.0596C16.9403 19.3351 14.2755 22 11 22Z" fill="#C5C5C5"/>
<path d="M10.9999 18.2294C9.80345 18.2294 8.83008 17.256 8.83008 16.0595C8.83008 14.8631 9.80345 13.8896 10.9999 13.8896C12.1964 13.8896 13.1697 14.8631 13.1697 16.0595C13.1697 17.256 12.1964 18.2294 10.9999 18.2294Z" fill="#F5F5F5"/>
<path d="M10.9999 18.8583C9.45695 18.8583 8.20166 17.603 8.20166 16.0601C8.20166 14.5171 9.45699 13.2617 10.9999 13.2617C12.5428 13.2617 13.7982 14.5171 13.7982 16.06C13.7982 17.603 12.5428 18.8583 10.9999 18.8583ZM10.9999 14.5186C10.1499 14.5186 9.4585 15.2101 9.4585 16.0601C9.4585 16.91 10.1499 17.6015 10.9999 17.6015C11.8499 17.6015 12.5413 16.91 12.5413 16.0601C12.5413 15.2101 11.8499 14.5186 10.9999 14.5186Z" fill="#C5C5C5"/>
<path d="M13.6064 12.0604C13.5017 12.0604 13.3956 12.0342 13.298 11.9791C12.5992 11.5845 11.8045 11.376 10.9999 11.376C10.1952 11.376 9.40051 11.5845 8.70176 11.9791C8.40158 12.1485 8.02087 12.0446 7.84853 11.7461L5.34602 7.41155C5.17247 7.11098 5.27547 6.72663 5.57604 6.55312C5.8766 6.37961 6.26096 6.48257 6.43447 6.78313L8.64233 10.6072C9.38376 10.2866 10.1879 10.1191 10.9999 10.1191C11.812 10.1191 12.6161 10.2867 13.3575 10.6072L15.4812 6.92893V1.25684H14.3726C14.0256 1.25684 13.7442 0.975477 13.7442 0.628418C13.7442 0.281359 14.0255 0 14.3726 0H16.1096C16.4566 0 16.738 0.281359 16.738 0.628418V7.09736C16.738 7.20766 16.709 7.31607 16.6538 7.41159L14.1513 11.7461C14.0348 11.9476 13.8236 12.0604 13.6064 12.0604Z" fill="#C5C5C5"/>
<path d="M10.9998 10.7481C11.0174 10.7481 11.0347 10.7492 11.0522 10.7494V0.628906H5.89014V7.09785L8.39272 11.4324C9.16302 10.9974 10.052 10.7481 10.9998 10.7481Z" fill="#F5F5F5"/>
<path d="M8.39324 12.0604C8.17595 12.0604 7.9648 11.9476 7.84844 11.7462L5.34594 7.41164C5.29077 7.31612 5.26172 7.20771 5.26172 7.09741V0.628418C5.26172 0.281359 5.54312 0 5.89014 0H11.0522C11.3992 0 11.6806 0.281359 11.6806 0.628418V10.7489C11.6806 10.9167 11.6135 11.0775 11.4942 11.1956C11.375 11.3136 11.2145 11.38 11.0456 11.3774C11.0323 11.3772 11.0191 11.3768 11.006 11.3764L10.9969 11.3761C10.195 11.3761 9.40038 11.5846 8.70162 11.9792C8.604 12.0342 8.49791 12.0604 8.39324 12.0604ZM6.51855 6.92897L8.6422 10.6073C9.20771 10.3627 9.8097 10.2073 10.4238 10.1472V1.25684H6.51855V6.92897Z" fill="#C5C5C5"/>
<path d="M8.84144 9H7.68803L9.44549 3.90909H10.8326L12.5875 9H11.4341L10.1589 5.07244H10.1191L8.84144 9ZM8.76935 6.99893H11.4938V7.83913H8.76935V6.99893ZM15.005 9H13.2003V3.90909H15.0199C15.532 3.90909 15.9728 4.01101 16.3423 4.21484C16.7119 4.41702 16.9961 4.70786 17.195 5.08736C17.3955 5.46686 17.4957 5.92093 17.4957 6.44957C17.4957 6.97988 17.3955 7.43561 17.195 7.81676C16.9961 8.19792 16.7102 8.49041 16.3374 8.69425C15.9661 8.89808 15.522 9 15.005 9ZM14.2766 8.07777H14.9602C15.2784 8.07777 15.546 8.02143 15.7631 7.90874C15.9819 7.79439 16.146 7.6179 16.2553 7.37926C16.3664 7.13897 16.4219 6.82907 16.4219 6.44957C16.4219 6.07339 16.3664 5.76598 16.2553 5.52734C16.146 5.28871 15.9827 5.11304 15.7656 5.00035C15.5485 4.88767 15.2809 4.83132 14.9627 4.83132H14.2766V8.07777ZM18.2931 9V3.90909H20.3314C20.7059 3.90909 21.0183 3.96461 21.2686 4.07564C21.5188 4.18667 21.7069 4.34079 21.8328 4.538C21.9588 4.73355 22.0218 4.95893 22.0218 5.21413C22.0218 5.413 21.982 5.58783 21.9024 5.73864C21.8229 5.88778 21.7135 6.01042 21.5743 6.10653C21.4368 6.20099 21.2793 6.26811 21.102 6.30788V6.3576C21.2959 6.36589 21.4774 6.42057 21.6464 6.52166C21.8171 6.62275 21.9555 6.76444 22.0615 6.94673C22.1676 7.12737 22.2206 7.3428 22.2206 7.59304C22.2206 7.86316 22.1535 8.10429 22.0193 8.31641C21.8867 8.52687 21.6903 8.69342 21.4301 8.81605C21.17 8.93868 20.8493 9 20.4681 9H18.2931ZM19.3694 8.12003H20.2469C20.5468 8.12003 20.7656 8.06286 20.9031 7.94851C21.0407 7.8325 21.1095 7.67839 21.1095 7.48615C21.1095 7.34529 21.0755 7.221 21.0075 7.11328C20.9396 7.00556 20.8427 6.92105 20.7167 6.85973C20.5924 6.79841 20.4441 6.76776 20.2718 6.76776H19.3694V8.12003ZM19.3694 6.03942H20.1673C20.3148 6.03942 20.4458 6.01373 20.5601 5.96236C20.6761 5.90933 20.7673 5.83475 20.8335 5.73864C20.9015 5.64252 20.9355 5.52734 20.9355 5.39311C20.9355 5.20916 20.87 5.06084 20.7391 4.94815C20.6098 4.83546 20.4259 4.77912 20.1872 4.77912H19.3694V6.03942Z" fill="#21A2D5"/>
<path d="M10.648 14L9.19132 8.90909H10.3671L11.2098 12.4464H11.252L12.1817 8.90909H13.1885L14.1157 12.4538H14.1604L15.0031 8.90909H16.1789L14.7222 14H13.6732L12.7037 10.6715H12.664L11.697 14H10.648ZM16.755 14V8.90909H18.7933C19.1679 8.90909 19.4802 8.96461 19.7305 9.07564C19.9807 9.18667 20.1688 9.34079 20.2947 9.538C20.4207 9.73355 20.4837 9.95893 20.4837 10.2141C20.4837 10.413 20.4439 10.5878 20.3643 10.7386C20.2848 10.8878 20.1754 11.0104 20.0362 11.1065C19.8987 11.201 19.7412 11.2681 19.5639 11.3079V11.3576C19.7578 11.3659 19.9393 11.4206 20.1083 11.5217C20.279 11.6228 20.4174 11.7644 20.5234 11.9467C20.6295 12.1274 20.6825 12.3428 20.6825 12.593C20.6825 12.8632 20.6154 13.1043 20.4812 13.3164C20.3486 13.5269 20.1522 13.6934 19.892 13.8161C19.6319 13.9387 19.3112 14 18.93 14H16.755ZM17.8313 13.12H18.7088C19.0088 13.12 19.2275 13.0629 19.3651 12.9485C19.5026 12.8325 19.5714 12.6784 19.5714 12.4862C19.5714 12.3453 19.5374 12.221 19.4695 12.1133C19.4015 12.0056 19.3046 11.921 19.1786 11.8597C19.0543 11.7984 18.906 11.7678 18.7337 11.7678H17.8313V13.12ZM17.8313 11.0394H18.6293C18.7768 11.0394 18.9077 11.0137 19.022 10.9624C19.138 10.9093 19.2292 10.8348 19.2955 10.7386C19.3634 10.6425 19.3974 10.5273 19.3974 10.3931C19.3974 10.2092 19.3319 10.0608 19.201 9.94815C19.0717 9.83546 18.8878 9.77912 18.6491 9.77912H17.8313V11.0394Z" fill="#0076A5"/>
<path d="M17 16.75L19 18.75L22.5 15" stroke="#7D7D7D" stroke-width="1.5" stroke-linecap="round" stroke-linejoin="round"/>
</svg>
