<svg width="40" height="40" viewBox="0 0 40 40" fill="none" xmlns="http://www.w3.org/2000/svg">
<path fill-rule="evenodd" clip-rule="evenodd" d="M19.985 0C31.0389 0 40 8.94138 40 19.9711C40 31.0009 31.0389 40 19.985 40C8.93096 40 0 31.0009 0 19.9711C0 8.94138 8.93096 0 19.985 0Z" fill="#F3F3F3"/>
<path d="M5.63959 9.9764C5.63959 10.3843 5.30795 10.7149 4.89885 10.7149C4.48975 10.7149 4.15811 10.3843 4.15811 9.9764C4.15811 9.56854 4.48975 9.23791 4.89885 9.23791C5.30795 9.23791 5.63959 9.56854 5.63959 9.9764Z" fill="#127BA4"/>
<path d="M3.43216 14.7766C3.43216 15.1844 3.10052 15.5151 2.69142 15.5151C2.28232 15.5151 1.95068 15.1844 1.95068 14.7766C1.95068 14.3687 2.28232 14.0381 2.69142 14.0381C3.10052 14.0381 3.43216 14.3687 3.43216 14.7766Z" fill="#127BA4"/>
<path d="M20.043 1.47783C19.2592 1.67826 19.3023 2.92034 20.043 2.95454C20.4521 2.95454 20.7838 2.6234 20.7838 2.21554C20.7838 1.81933 20.4708 1.496 20.0779 1.47785L20.043 1.47783Z" fill="#127BA4"/>
<path d="M14.4442 2.96075C14.4442 3.3686 14.1125 3.69924 13.7034 3.69924C13.2943 3.69924 12.9627 3.3686 12.9627 2.96075C12.9627 2.55289 13.2943 2.22226 13.7034 2.22226C14.1125 2.22226 14.4442 2.55289 14.4442 2.96075Z" fill="#127BA4"/>
<path d="M9.15115 6.04631C9.15115 6.45417 8.81951 6.7848 8.41041 6.7848C8.00131 6.7848 7.66967 6.45417 7.66967 6.04631C7.66967 5.63846 8.00131 5.30782 8.41041 5.30782C8.81951 5.30782 9.15115 5.63846 9.15115 6.04631Z" fill="#127BA4"/>
<path d="M2.59257 19.9393C2.59257 20.3471 2.26092 20.6778 1.85182 20.6778C1.44272 20.6778 1.11108 20.3471 1.11108 19.9393C1.11108 19.5314 1.44272 19.2008 1.85182 19.2008C2.26092 19.2008 2.59257 19.5314 2.59257 19.9393Z" fill="#127BA4"/>
<path d="M24.3237 25.9405H9.39602C9.41142 25.8151 9.48845 25.5266 9.67331 25.376C9.85818 25.2255 10.1817 25.1879 10.3203 25.1879V24.5293C10.3203 24.3882 10.3573 24.2 10.5052 24.0118C10.6531 23.8237 10.8287 23.7766 10.9674 23.7766H22.7062C22.8448 23.7766 23.1036 23.8989 23.2145 24.0118C23.3255 24.1247 23.3994 24.2941 23.3994 24.4352V25.1408C23.5226 25.1565 23.8153 25.2255 24.0002 25.376C24.1851 25.5266 24.2929 25.8151 24.3237 25.9405Z" fill="url(#paint0_linear_72_7855)"/>
<path d="M13.7615 31.3858C13.3989 31.3858 13.1126 31.3203 12.9028 31.1892C12.696 31.0564 12.5926 30.8737 12.5926 30.6409V29.3626C12.5926 29.1332 12.6975 28.9521 12.9073 28.8193C13.1201 28.6849 13.4078 28.6177 13.7705 28.6177C14.1271 28.6177 14.4104 28.6825 14.6202 28.8119C14.833 28.9414 14.9394 29.1159 14.9394 29.3356V30.0927H13.4378V30.6778C13.4378 30.7614 13.4678 30.8278 13.5277 30.8769C13.5877 30.9245 13.6686 30.9482 13.7705 30.9482C13.8724 30.9482 13.9518 30.9245 14.0088 30.8769C14.0657 30.8278 14.0942 30.7614 14.0942 30.6778V30.3828H14.9394V30.668C14.9394 30.8892 14.833 31.0646 14.6202 31.1941C14.4104 31.3219 14.1241 31.3858 13.7615 31.3858ZM13.4378 29.7043H14.0942V29.3257C14.0942 29.2372 14.0657 29.1692 14.0088 29.1217C13.9548 29.0742 13.8754 29.0504 13.7705 29.0504C13.6656 29.0504 13.5832 29.0742 13.5232 29.1217C13.4663 29.1692 13.4378 29.2372 13.4378 29.3257V29.7043Z" fill="white"/>
<path d="M16.6411 31.3858C16.4073 31.3858 16.2035 31.353 16.0297 31.2875C15.8558 31.2203 15.721 31.1285 15.6251 31.0122C15.5322 30.8942 15.4902 30.7581 15.4992 30.6041V28.4751C15.5142 28.2342 15.6386 28.0441 15.8723 27.9048C16.1061 27.7639 16.4133 27.6934 16.7939 27.6934C17.1776 27.6934 17.4863 27.7639 17.72 27.9048C17.9538 28.0457 18.0767 28.2359 18.0887 28.4751V29.0307H17.1176V28.4751C17.1176 28.3916 17.0891 28.3268 17.0322 28.2809C16.9753 28.2334 16.8958 28.2096 16.7939 28.2096C16.692 28.2096 16.6126 28.2334 16.5557 28.2809C16.4987 28.3268 16.4702 28.3916 16.4702 28.4751V30.6483C16.4702 30.7303 16.4987 30.795 16.5557 30.8425C16.6126 30.8901 16.692 30.9138 16.7939 30.9138C16.8958 30.9138 16.9753 30.8901 17.0322 30.8425C17.0891 30.795 17.1176 30.7303 17.1176 30.6483V29.9944H16.731V29.547H18.0887V31.3465H17.5132L17.3963 31.1744C17.2855 31.2498 17.1716 31.3039 17.0547 31.3367C16.9378 31.3694 16.7999 31.3858 16.6411 31.3858Z" fill="white"/>
<path d="M18.8021 31.3465V27.7327H19.7732C20.1388 27.7327 20.449 27.7745 20.7038 27.8581C20.9585 27.9417 21.1518 28.0646 21.2837 28.2268C21.4156 28.3875 21.4815 28.5833 21.4815 28.8144C21.4815 28.9783 21.4441 29.1274 21.3691 29.2618C21.2972 29.3946 21.1893 29.5093 21.0455 29.606C20.9016 29.701 20.7233 29.774 20.5105 29.8248C20.2977 29.8756 20.0519 29.901 19.7732 29.901V31.3465H18.8021ZM19.7732 29.3601C19.932 29.3601 20.0594 29.3511 20.1553 29.3331C20.2512 29.3134 20.3247 29.2831 20.3756 29.2421C20.4266 29.1995 20.4595 29.1446 20.4745 29.0774C20.4925 29.0102 20.5015 28.9291 20.5015 28.8341C20.5015 28.7062 20.485 28.6013 20.452 28.5194C20.4191 28.4358 20.3501 28.3743 20.2452 28.335C20.1433 28.294 19.986 28.2736 19.7732 28.2736V29.3601Z" fill="white"/>
<path fill-rule="evenodd" clip-rule="evenodd" d="M8.14819 27.8222V31.4116C8.14819 31.5527 8.19135 31.8941 8.37927 32.1172C8.65657 32.4465 8.93386 32.4936 9.11872 32.4936H24.5548C24.7859 32.4936 25.1556 32.343 25.3405 32.1172C25.5253 31.8914 25.6178 31.6938 25.6178 31.4116V27.8222C25.6178 27.6341 25.4329 27.2342 25.2942 27.1166C25.1556 26.999 24.8321 26.7403 24.5548 26.7403H9.11872C8.98008 26.7559 8.64732 26.8532 8.42549 27.1166C8.20365 27.38 8.14819 27.6968 8.14819 27.8222ZM12.9028 31.1892C13.1126 31.3203 13.3989 31.3858 13.7615 31.3858C14.1241 31.3858 14.4104 31.3219 14.6202 31.1941C14.833 31.0646 14.9394 30.8892 14.9394 30.668V30.3828H14.0942V30.6778C14.0942 30.7614 14.0657 30.8278 14.0088 30.8769C13.9518 30.9245 13.8724 30.9482 13.7705 30.9482C13.6686 30.9482 13.5877 30.9245 13.5277 30.8769C13.4678 30.8278 13.4378 30.7614 13.4378 30.6778V30.0927H14.9394V29.3356C14.9394 29.1159 14.833 28.9414 14.6202 28.8119C14.4104 28.6825 14.1271 28.6177 13.7705 28.6177C13.4078 28.6177 13.1201 28.6849 12.9073 28.8193C12.6975 28.9521 12.5926 29.1332 12.5926 29.3626V30.6409C12.5926 30.8737 12.696 31.0564 12.9028 31.1892ZM16.0297 31.2875C16.2035 31.353 16.4073 31.3858 16.6411 31.3858C16.7999 31.3858 16.9378 31.3694 17.0547 31.3367C17.1716 31.3039 17.2855 31.2498 17.3963 31.1744L17.5132 31.3465H18.0887V29.547H16.731V29.9944H17.1176V30.6483C17.1176 30.7303 17.0891 30.795 17.0322 30.8425C16.9753 30.8901 16.8958 30.9138 16.7939 30.9138C16.692 30.9138 16.6126 30.8901 16.5557 30.8425C16.4987 30.795 16.4702 30.7303 16.4702 30.6483V28.4751C16.4702 28.3916 16.4987 28.3268 16.5557 28.2809C16.6126 28.2334 16.692 28.2096 16.7939 28.2096C16.8958 28.2096 16.9753 28.2334 17.0322 28.2809C17.0891 28.3268 17.1176 28.3916 17.1176 28.4751V29.0307H18.0887V28.4751C18.0767 28.2359 17.9538 28.0457 17.72 27.9048C17.4863 27.7639 17.1776 27.6934 16.7939 27.6934C16.4133 27.6934 16.1061 27.7639 15.8723 27.9048C15.6386 28.0441 15.5142 28.2342 15.4992 28.4751V30.6041C15.4902 30.7581 15.5322 30.8942 15.6251 31.0122C15.721 31.1285 15.8558 31.2203 16.0297 31.2875ZM18.8021 27.7327V31.3465H19.7732V29.901C20.0519 29.901 20.2977 29.8756 20.5105 29.8248C20.7233 29.774 20.9016 29.701 21.0455 29.606C21.1893 29.5093 21.2972 29.3946 21.3691 29.2618C21.4441 29.1274 21.4815 28.9783 21.4815 28.8144C21.4815 28.5833 21.4156 28.3875 21.2837 28.2268C21.1518 28.0646 20.9585 27.9417 20.7038 27.8581C20.449 27.7745 20.1388 27.7327 19.7732 27.7327H18.8021Z" fill="#0076A5"/>
<path d="M19.7732 29.3601C19.932 29.3601 20.0594 29.3511 20.1553 29.3331C20.2512 29.3134 20.3247 29.2831 20.3756 29.2421C20.4266 29.1995 20.4595 29.1446 20.4745 29.0774C20.4925 29.0102 20.5015 28.9291 20.5015 28.8341C20.5015 28.7062 20.485 28.6013 20.452 28.5194C20.4191 28.4358 20.3501 28.3743 20.2452 28.335C20.1433 28.294 19.986 28.2736 19.7732 28.2736V29.3601Z" fill="#127BA4"/>
<path fill-rule="evenodd" clip-rule="evenodd" d="M13.7615 31.3858C13.3989 31.3858 13.1126 31.3203 12.9028 31.1892C12.696 31.0564 12.5926 30.8737 12.5926 30.6409V29.3626C12.5926 29.1332 12.6975 28.9521 12.9073 28.8193C13.1201 28.6849 13.4078 28.6177 13.7705 28.6177C14.1271 28.6177 14.4104 28.6825 14.6202 28.8119C14.833 28.9414 14.9394 29.1159 14.9394 29.3356V30.0927H13.4378V30.6778C13.4378 30.7614 13.4678 30.8278 13.5277 30.8769C13.5877 30.9245 13.6686 30.9482 13.7705 30.9482C13.8724 30.9482 13.9518 30.9245 14.0088 30.8769C14.0657 30.8278 14.0942 30.7614 14.0942 30.6778V30.3828H14.9394V30.668C14.9394 30.8892 14.833 31.0646 14.6202 31.1941C14.4104 31.3219 14.1241 31.3858 13.7615 31.3858ZM16.6411 31.3858C16.4073 31.3858 16.2035 31.353 16.0297 31.2875C15.8558 31.2203 15.721 31.1285 15.6251 31.0122C15.5322 30.8942 15.4902 30.7581 15.4992 30.6041V28.4751C15.5142 28.2342 15.6386 28.0441 15.8723 27.9048C16.1061 27.7639 16.4133 27.6934 16.7939 27.6934C17.1776 27.6934 17.4863 27.7639 17.72 27.9048C17.9538 28.0457 18.0767 28.2359 18.0887 28.4751V29.0307H17.1176V28.4751C17.1176 28.3916 17.0891 28.3268 17.0322 28.2809C16.9753 28.2334 16.8958 28.2096 16.7939 28.2096C16.692 28.2096 16.6126 28.2334 16.5557 28.2809C16.4987 28.3268 16.4702 28.3916 16.4702 28.4751V30.6483C16.4702 30.7303 16.4987 30.795 16.5557 30.8425C16.6126 30.8901 16.692 30.9138 16.7939 30.9138C16.8958 30.9138 16.9753 30.8901 17.0322 30.8425C17.0891 30.795 17.1176 30.7303 17.1176 30.6483V29.9944H16.731V29.547H18.0887V31.3465H17.5132L17.3963 31.1744C17.2855 31.2498 17.1716 31.3039 17.0547 31.3367C16.9378 31.3694 16.7999 31.3858 16.6411 31.3858ZM18.8021 31.3465V27.7327H19.7732C20.1388 27.7327 20.449 27.7745 20.7038 27.8581C20.9585 27.9417 21.1518 28.0646 21.2837 28.2268C21.4156 28.3875 21.4815 28.5833 21.4815 28.8144C21.4815 28.9783 21.4441 29.1274 21.3691 29.2618C21.2972 29.3946 21.1893 29.5093 21.0455 29.606C20.9016 29.701 20.7233 29.774 20.5105 29.8248C20.2977 29.8756 20.0519 29.901 19.7732 29.901V31.3465H18.8021ZM19.7732 29.3601C19.932 29.3601 20.0594 29.3511 20.1553 29.3331C20.2512 29.3134 20.3247 29.2831 20.3756 29.2421C20.4266 29.1995 20.4595 29.1446 20.4745 29.0774C20.4925 29.0102 20.5015 28.9291 20.5015 28.8341C20.5015 28.7062 20.485 28.6013 20.452 28.5194C20.4191 28.4358 20.3501 28.3743 20.2452 28.335C20.1433 28.294 19.986 28.2736 19.7732 28.2736V29.3601ZM14.0942 29.7043H13.4378V29.3257C13.4378 29.2372 13.4663 29.1692 13.5232 29.1217C13.5832 29.0742 13.6656 29.0504 13.7705 29.0504C13.8754 29.0504 13.9548 29.0742 14.0088 29.1217C14.0657 29.1692 14.0942 29.2372 14.0942 29.3257V29.7043Z" fill="white"/>
<path d="M13.4378 29.7043H14.0942V29.3257C14.0942 29.2372 14.0657 29.1692 14.0088 29.1217C13.9548 29.0742 13.8754 29.0504 13.7705 29.0504C13.6656 29.0504 13.5832 29.0742 13.5232 29.1217C13.4663 29.1692 13.4378 29.2372 13.4378 29.3257V29.7043Z" fill="#127BA4"/>
<path d="M14.0197 15.7901L19.1023 9.34287L23.8768 13.2741L22.7474 14.7417L24.6469 16.8384C24.6812 16.8559 24.7496 17.0061 24.7496 17.2577C24.7496 17.5093 24.5785 17.6945 24.5442 17.7295L34.196 25.5919C34.35 25.8715 34.5656 26.5354 34.196 26.9547C33.8264 27.3741 33.1179 27.3741 32.8098 27.3216L23.2094 19.4592C23.1581 19.5291 22.9938 19.6794 22.7474 19.7213C22.5009 19.7632 22.3367 19.6689 22.2853 19.6165L20.0264 18.2012L18.7943 19.7213L14.0197 15.7901Z" fill="url(#paint1_linear_72_7855)"/>
<path d="M19.205 8.1373L19.9751 7.14139C19.9408 7.00162 19.934 6.68013 20.1804 6.5124C20.4885 6.30273 21.8233 6.1979 24.0822 7.98005C26.3411 9.76221 26.4951 11.2299 26.3925 11.5444C26.3103 11.796 25.9817 11.8938 25.8277 11.9113L25.0063 12.9596L19.205 8.1373Z" fill="url(#paint2_linear_72_7855)"/>
<path d="M18.7429 20.9269L17.9215 21.9228C17.9386 22.08 17.9112 22.426 17.6648 22.5518C17.3568 22.709 16.8947 22.6566 16.638 22.6042C16.3813 22.5518 14.6016 21.7376 13.609 20.9269C12.3255 19.8785 11.4528 18.0964 11.5041 17.6246C11.5452 17.2472 11.9319 17.118 12.1202 17.1005L12.9416 16.1046L18.7429 20.9269Z" fill="url(#paint3_linear_72_7855)"/>
<defs>
<linearGradient id="paint0_linear_72_7855" x1="18.1308" y1="29.83" x2="9.39602" y2="29.8301" gradientUnits="userSpaceOnUse">
<stop stop-color="#006085"/>
<stop offset="1" stop-color="#127BA4"/>
</linearGradient>
<linearGradient id="paint1_linear_72_7855" x1="35.0543" y1="20.3636" x2="11.5035" y2="20.8404" gradientUnits="userSpaceOnUse">
<stop stop-color="#023F56"/>
<stop offset="1" stop-color="#127BA4"/>
</linearGradient>
<linearGradient id="paint2_linear_72_7855" x1="22.2968" y1="7.85445" x2="32.1103" y2="7.85445" gradientUnits="userSpaceOnUse">
<stop stop-color="#FCAD00"/>
<stop offset="1" stop-color="#DA6700"/>
</linearGradient>
<linearGradient id="paint3_linear_72_7855" x1="19.3527" y1="15.1272" x2="17.8701" y2="16.4609" gradientUnits="userSpaceOnUse">
<stop stop-color="#FFB400"/>
<stop offset="1" stop-color="#FFD26F"/>
</linearGradient>
</defs>
</svg>
