<svg width="40" height="40" viewBox="0 0 40 40" fill="none" xmlns="http://www.w3.org/2000/svg">
<path d="M20 40C31.0457 40 40 31.0457 40 20C40 8.9543 31.0457 0 20 0C8.9543 0 0 8.9543 0 20C0 31.0457 8.9543 40 20 40Z" fill="#F3F3F3"/>
<path d="M28.8889 6.66675H19.9555V31.1112H28.8889V6.66675Z" fill="#044D69"/>
<path d="M19.9555 6.66675H11.1111V31.1112H19.9555V6.66675Z" fill="#0076A5"/>
<path d="M26.6666 10.9087H13.3333V11.3128H26.6666V10.9087Z" fill="white"/>
<path d="M26.6666 13.131H13.3333V13.535H26.6666V13.131Z" fill="white"/>
<path d="M26.6666 15.3531H13.3333V15.7572H26.6666V15.3531Z" fill="white"/>
<path d="M26.6666 17.5754H13.3333V17.9795H26.6666V17.5754Z" fill="white"/>
<path d="M26.6666 19.7976H13.3333V20.2017H26.6666V19.7976Z" fill="white"/>
<path d="M26.6666 22.0199H13.3333V22.4239H26.6666V22.0199Z" fill="white"/>
<path d="M17.7777 24.242H13.3333V24.6461H17.7777V24.242Z" fill="white"/>
<path d="M27.9763 28.4105L25.729 29.5221L25.2673 27.0579L27.9763 28.4105Z" fill="#FFD26F"/>
<path d="M25.7123 29.4331L25.729 29.5221L27.9763 28.4105L26.5763 27.7115L25.7123 29.4331Z" fill="#FFB400"/>
<path d="M27.9763 28.4105L25.2673 27.0579L32.346 12.8818C32.695 12.1831 33.5441 11.8995 34.2429 12.2484L34.4215 12.3375C35.1203 12.6865 35.4039 13.5358 35.055 14.2345L27.9763 28.4105Z" fill="#FFB400"/>
<path d="M34.4215 12.3375L34.3166 12.2855L26.5763 27.7115L27.9763 28.4105L35.055 14.2345C35.4039 13.5358 35.1203 12.6865 34.4215 12.3375Z" fill="#DA6700"/>
</svg>
