<svg width="40" height="41" viewBox="0 0 40 41" fill="none" xmlns="http://www.w3.org/2000/svg">
<path fill-rule="evenodd" clip-rule="evenodd" d="M19.985 0.997784C31.0389 0.997784 40 10.3402 40 21.3699C40 31.9987 31.0389 40.9978 19.985 40.9978C8.93096 40.9978 0 32.3997 0 21.3699C0 10.3402 8.93096 0.997784 19.985 0.997784Z" fill="#F3F3F3"/>
<path fill-rule="evenodd" clip-rule="evenodd" d="M16.7225 10.4542L29.5815 22.8794L29.4579 30.6625C29.4579 30.6625 29.328 31.5115 28.8397 32.0214C28.4051 32.6026 27.4796 33.0097 27.4796 33.0097L9.55106 31.6508C9.55106 31.6508 8.32288 31.6597 7.69642 30.9095C7.06984 30.1595 6.84508 29.6742 6.84508 29.6742L6.70728 14.6021C6.70728 14.6021 6.76679 13.859 7.26215 13.2432C7.63679 12.6274 8.43825 12.2548 8.43825 12.2548L16.7225 10.4542ZM21.5446 10.031L29.0869 16.9494V17.5671L21.0501 10.1722L21.5446 10.031ZM28.8397 10.4542H32.7963C32.7963 10.4542 33.0756 10.5388 33.1673 10.7363C33.2589 10.7587 33.4145 11.0193 33.4145 11.0193V14.8492C33.4145 14.8492 33.2787 15.1296 33.1673 15.2198C33.1182 15.3099 32.7963 15.4669 32.7963 15.4669H28.8397C28.8397 15.4669 28.6033 15.3509 28.4687 15.2198C28.3341 15.0886 28.2214 14.8492 28.2214 14.8492V11.0193C28.2214 11.0193 28.3185 10.8041 28.4687 10.7363C28.619 10.4935 28.8397 10.4542 28.8397 10.4542ZM23.2757 14.355H24.1412L24.2648 14.4785V15.2198L24.1412 15.3433H23.2757L23.152 15.2198V14.4785L23.2757 14.355ZM25.3451 15.5904H26.2431L26.4904 15.8376V16.9494L26.2431 17.1965H25.3451L25.067 16.9494V15.8376L25.3451 15.5904ZM26.1195 11.8841H26.8613L26.985 12.0078V12.7489L26.8613 12.8725H26.1195L25.9958 12.7489V12.0078L26.1195 11.8841ZM30.0762 16.9494L29.7052 17.1965V19.6672L29.9525 19.9144H32.0545L32.4253 19.6672V17.1965L32.0545 16.9494H30.0762Z" fill="url(#paint0_linear_2_4414)"/>
<path fill-rule="evenodd" clip-rule="evenodd" d="M21.0755 27.8959C21.0755 27.8959 23.6416 27.6958 24.6671 27.1174C25.6334 26.539 27.0686 25.7058 27.2803 23.8824C27.5436 21.3872 25.6621 20.4447 23.7183 20.6663C22.548 20.7998 20.5839 21.6511 19.6967 23.6694C18.8094 25.6876 19.0072 27.1383 19.2371 28.452C19.467 29.7658 20.4525 31.8577 23.1438 32.1224C25.913 32.3872 27.2145 30.5181 27.625 29.6755C28.0354 28.8329 28.3144 27.6735 28.3144 27.6735C28.3144 27.6735 27.0488 31.0452 24.2928 30.899C21.6245 30.7528 21.0755 27.8959 21.0755 27.8959ZM20.8458 26.5037C20.8458 26.5037 22.7533 26.562 24.6159 25.0041C25.3171 24.3522 25.5715 23.0915 24.9822 22.59C24.6281 22.2361 23.0004 21.8124 21.7649 23.4469C20.7122 24.8397 20.8458 26.5037 20.8458 26.5037Z" fill="url(#paint1_linear_2_4414)"/>
<path d="M31.4571 27.1267L31.5658 27.0689C31.7403 26.9761 31.8968 26.9196 32.0354 26.8992C32.1739 26.8789 32.292 26.8914 32.3895 26.9368C32.4859 26.9828 32.5597 27.0597 32.6109 27.1677C32.6621 27.2745 32.6875 27.4098 32.6871 27.5737C32.6867 27.7363 32.6606 27.899 32.6088 28.0618C32.557 28.2233 32.4826 28.3791 32.3857 28.529C32.2878 28.6795 32.1694 28.819 32.0306 28.9474C31.8917 29.0745 31.7351 29.1845 31.5607 29.2773L31.4519 29.3351C31.2764 29.4284 31.1199 29.485 30.9824 29.5048C30.8438 29.5251 30.7258 29.5126 30.6283 29.4672C30.5308 29.4206 30.4565 29.3439 30.4053 29.2371C30.3541 29.1292 30.3287 28.9938 30.3291 28.8312C30.3295 28.6673 30.3556 28.5046 30.4074 28.3431C30.4592 28.1804 30.5341 28.0243 30.632 27.875C30.73 27.7245 30.8484 27.5856 30.9872 27.4584C31.125 27.3306 31.2816 27.22 31.4571 27.1267ZM31.5646 27.6085L31.4527 27.668C31.3308 27.7329 31.2236 27.8023 31.131 27.8764C31.0385 27.9505 30.9607 28.0287 30.8975 28.1109C30.8343 28.1931 30.7869 28.2776 30.7552 28.3644C30.7225 28.4518 30.706 28.5406 30.7058 28.6309C30.7056 28.7211 30.7217 28.7926 30.7541 28.8453C30.7855 28.8974 30.8326 28.931 30.8956 28.9462C30.9585 28.9601 31.0362 28.955 31.1286 28.9308C31.221 28.9065 31.3281 28.862 31.45 28.7972L31.5619 28.7377C31.6828 28.6734 31.79 28.6039 31.8836 28.5293C31.9761 28.4551 32.0545 28.3767 32.1187 28.2939C32.1818 28.2117 32.2298 28.1269 32.2625 28.0396C32.2953 27.9522 32.3117 27.8634 32.3119 27.7732C32.3121 27.6829 32.296 27.6114 32.2636 27.5587C32.2312 27.506 32.1836 27.4726 32.1206 27.4587C32.0566 27.4453 31.9784 27.4507 31.886 27.4749C31.7926 27.4997 31.6854 27.5443 31.5646 27.6085Z" fill="#045472"/>
<path d="M31.9013 25.005L31.9025 24.4725C32.0569 24.4011 32.194 24.3762 32.3136 24.398C32.4331 24.4186 32.5264 24.487 32.5933 24.6032C32.6602 24.7183 32.6934 24.882 32.6929 25.0946C32.6925 25.2608 32.6669 25.4232 32.6162 25.5818C32.5644 25.741 32.4906 25.8929 32.3947 26.0376C32.2989 26.181 32.1831 26.3131 32.0475 26.4339C31.9118 26.5547 31.7599 26.6597 31.5918 26.7492L31.4326 26.8338C31.2645 26.9232 31.1127 26.979 30.9772 27.0013C30.8408 27.0228 30.7248 27.0122 30.6294 26.9692C30.534 26.9251 30.4607 26.8508 30.4096 26.7464C30.3584 26.642 30.333 26.5085 30.3334 26.3458C30.3339 26.1297 30.369 25.929 30.4387 25.7437C30.5084 25.5572 30.6043 25.3906 30.7263 25.2439C30.8484 25.096 30.9872 24.9723 31.1428 24.873L31.1416 25.4073C31.0491 25.4624 30.9707 25.5248 30.9066 25.5945C30.8413 25.6648 30.7923 25.7448 30.7596 25.8345C30.7258 25.9237 30.7088 26.0276 30.7085 26.1463C30.7083 26.2354 30.7228 26.3053 30.7521 26.3561C30.7813 26.407 30.8259 26.439 30.8857 26.4523C30.9454 26.4656 31.021 26.4592 31.1124 26.4331C31.2027 26.4064 31.3088 26.3607 31.4307 26.2959L31.593 26.2095C31.7118 26.1464 31.8164 26.0807 31.9068 26.0124C31.9961 25.9448 32.0719 25.8737 32.134 25.7991C32.195 25.724 32.2414 25.6448 32.273 25.5615C32.3037 25.4776 32.3191 25.3882 32.3193 25.2932C32.3196 25.1816 32.304 25.098 32.2727 25.0423C32.2413 24.9867 32.1947 24.9563 32.1328 24.9513C32.0709 24.9451 31.9937 24.963 31.9013 25.005Z" fill="#045472"/>
<path d="M32.0673 22.6862C32.0263 22.708 31.9895 22.7347 31.9569 22.7663C31.9232 22.7972 31.8927 22.8384 31.8653 22.8897C31.8368 22.9416 31.8089 23.008 31.7814 23.0891C31.7539 23.1701 31.7253 23.2712 31.6957 23.3926C31.6618 23.528 31.6237 23.6597 31.5814 23.7877C31.5391 23.9146 31.49 24.0332 31.4342 24.1435C31.3772 24.2532 31.3114 24.3511 31.2367 24.4371C31.162 24.5219 31.0752 24.5905 30.9765 24.6431C30.8809 24.6939 30.7942 24.7163 30.7166 24.7101C30.6379 24.7045 30.5708 24.6738 30.5153 24.6179C30.4587 24.5626 30.4154 24.4849 30.3852 24.3848C30.355 24.2834 30.34 24.1627 30.3404 24.0226C30.3408 23.8314 30.3717 23.6484 30.433 23.4735C30.4942 23.2986 30.578 23.1438 30.6844 23.009C30.7907 22.873 30.9121 22.7687 31.0487 22.696L31.0475 23.2268C30.9802 23.2625 30.9214 23.3099 30.8708 23.3687C30.8193 23.427 30.7787 23.496 30.7491 23.5758C30.7196 23.6543 30.7047 23.7417 30.7045 23.8379C30.7042 23.9305 30.7167 24.001 30.7417 24.0493C30.7658 24.0982 30.7988 24.1269 30.8407 24.1354C30.8816 24.1445 30.9278 24.1353 30.9793 24.1079C31.0182 24.0873 31.0534 24.0578 31.085 24.0197C31.1166 23.9804 31.1461 23.9315 31.1735 23.873C31.2009 23.8146 31.2268 23.7469 31.2511 23.6699C31.2754 23.5929 31.2992 23.5062 31.3225 23.4096C31.3607 23.2482 31.4036 23.1014 31.4511 22.9694C31.4986 22.8363 31.5519 22.7178 31.6109 22.6141C31.6699 22.5104 31.7368 22.4203 31.8115 22.3438C31.8862 22.2673 31.9708 22.2039 32.0654 22.1536C32.1652 22.1005 32.2545 22.075 32.3332 22.077C32.4119 22.079 32.4784 22.1071 32.5329 22.1611C32.5873 22.2152 32.6286 22.2922 32.6567 22.3923C32.6848 22.4924 32.6987 22.6137 32.6984 22.7562C32.6981 22.8844 32.683 23.0187 32.6533 23.159C32.6226 23.2999 32.5766 23.4375 32.5154 23.5721C32.4542 23.7054 32.3763 23.8275 32.2816 23.9383C32.1869 24.0492 32.0749 24.139 31.9456 24.2077L31.9469 23.6716C32.0183 23.6336 32.0788 23.589 32.1282 23.5378C32.1777 23.4866 32.2177 23.4304 32.2483 23.3691C32.2789 23.3065 32.301 23.2402 32.3149 23.17C32.3287 23.0986 32.3357 23.0249 32.3358 22.949C32.3361 22.8563 32.3247 22.7865 32.3017 22.7394C32.2787 22.6912 32.2468 22.6637 32.2059 22.657C32.165 22.6491 32.1188 22.6588 32.0673 22.6862Z" fill="#045472"/>
<path fill-rule="evenodd" clip-rule="evenodd" d="M32.6488 30.456L32.6494 30.1942C32.6499 30.0185 32.6245 29.8719 32.5733 29.7544C32.5211 29.6363 32.4474 29.5504 32.352 29.4968C32.2556 29.4425 32.1402 29.4227 32.0058 29.4372C31.8714 29.4506 31.7228 29.5006 31.5599 29.5872L31.4512 29.645C31.2873 29.7322 31.1385 29.8403 31.0049 29.9695C30.8703 30.098 30.7545 30.2408 30.6576 30.3979C30.5607 30.555 30.4863 30.7196 30.4345 30.8919C30.3816 31.0635 30.355 31.2359 30.3545 31.4093L30.3539 31.6764L30.7243 31.4794L30.7236 31.7929L30.3532 31.9899L30.3527 32.2107L32.6476 30.9903L32.6481 30.7588L32.6488 30.456ZM32.28 30.6521L30.7243 31.4794L30.7249 31.2123C30.7252 31.109 30.7412 31.0092 30.7729 30.9129C30.8035 30.8171 30.8494 30.7257 30.9105 30.6387C30.9715 30.5517 31.0468 30.4708 31.1362 30.396C31.2255 30.32 31.3291 30.2507 31.4468 30.1881L31.5587 30.1286C31.7121 30.047 31.8428 30.0024 31.951 29.9947C32.0591 29.9858 32.1414 30.0143 32.1979 30.0803C32.2534 30.1469 32.2809 30.2502 32.2806 30.3903L32.28 30.6521Z" fill="#045472"/>
<path d="M30.3532 31.9899L30.7236 31.7929L30.7243 31.4794L30.3539 31.6764L30.3532 31.9899Z" fill="#045472"/>
<defs>
<linearGradient id="paint0_linear_2_4414" x1="6.70728" y1="33.0097" x2="6.70728" y2="10.031" gradientUnits="userSpaceOnUse">
<stop stop-color="#02516F"/>
<stop offset="1" stop-color="#1D86A9"/>
</linearGradient>
<linearGradient id="paint1_linear_2_4414" x1="19.042" y1="32.1478" x2="19.042" y2="20.635" gradientUnits="userSpaceOnUse">
<stop stop-color="#DE7000"/>
<stop offset="0.46875" stop-color="#FCAD00"/>
<stop offset="0.973958" stop-color="#FFD26F"/>
</linearGradient>
</defs>
</svg>
