<svg width="40" height="40" viewBox="0 0 40 40" fill="none" xmlns="http://www.w3.org/2000/svg">
<path d="M20 0C8.95437 0 0 8.95437 0 20C0 31.0456 8.95437 40 20 40C31.0456 40 40 31.0456 40 20C40 8.95437 31.0456 0 20 0Z" fill="#F3F3F3"/>
<path d="M31.7817 28.8889H7.4772C7.03139 28.8889 6.66675 28.5153 6.66675 28.0591V11.9414C6.66675 11.4847 7.03139 11.1111 7.4772 11.1111H31.7822C32.228 11.1111 32.5927 11.4847 32.5927 11.9414V28.0585C32.5921 28.5153 32.2275 28.8889 31.7817 28.8889Z" fill="#0076A5"/>
<path d="M32.5927 14.0742H6.66675V18.5187H32.5927V14.0742Z" fill="#044D69"/>
<path d="M17.7778 21.4816H9.62964V22.2223H17.7778V21.4816Z" fill="white"/>
<path d="M17.7778 15.5557H9.62964V16.2964H17.7778V15.5557Z" fill="white"/>
<path d="M14.8148 23.7038H9.62964V24.4446H14.8148V23.7038Z" fill="white"/>
<path d="M25.4175 29.796V26.6354C24.4312 26.3535 23.7087 25.9279 23.2481 25.3567C22.7881 24.786 22.5581 24.0929 22.5581 23.2779C22.5581 22.4529 22.8181 21.7604 23.3387 21.1992C23.8593 20.6385 24.5518 20.3154 25.4175 20.2298V19.4829H26.5112V20.2298C27.3106 20.3254 27.9468 20.5979 28.42 21.0485C28.8925 21.4985 29.1943 22.101 29.3256 22.8554L27.4168 23.1048C27.3012 22.511 26.9993 22.1085 26.5112 21.8973V24.8473C27.7181 25.1742 28.5406 25.5979 28.9781 26.1185C29.4156 26.6385 29.635 27.3067 29.635 28.121C29.635 29.031 29.3593 29.7985 28.8087 30.4223C28.2581 31.046 27.4925 31.4279 26.5118 31.5692V32.9798H25.4181V31.6067C24.5475 31.501 23.8412 31.1767 23.2981 30.6335C22.755 30.091 22.4075 29.3235 22.2568 28.3329L24.2262 28.1217C24.3062 28.5242 24.4575 28.871 24.6787 29.1629C24.8993 29.4542 25.1456 29.6654 25.4175 29.796ZM25.4175 21.8748C25.1206 21.9754 24.8837 22.146 24.7081 22.3879C24.5318 22.6292 24.4443 22.896 24.4443 23.1873C24.4443 23.4535 24.5243 23.7017 24.6856 23.9304C24.8468 24.1592 25.0906 24.3442 25.4175 24.4848C25.4175 24.4848 25.4175 21.8748 25.4175 21.8748ZM26.5112 29.9017C26.8881 29.831 27.195 29.6567 27.4312 29.3773C27.6675 29.0985 27.7856 28.7698 27.7856 28.3929C27.7856 28.056 27.6862 27.766 27.4875 27.5217C27.2887 27.2779 26.9631 27.0904 26.5106 26.9598L26.5112 29.9017Z" fill="#FFB400"/>
</svg>
