<svg width="22" height="22" viewBox="0 0 22 22" fill="none" xmlns="http://www.w3.org/2000/svg">
<path fill-rule="evenodd" clip-rule="evenodd" d="M5 13.3479V12.3187C5 12.1394 5.12506 12 5.27286 12H9.75H10.25H16.7271C16.8806 12 17 12.1461 17 12.3187V13.3479C17 13.5272 16.8749 13.6667 16.7271 13.6667H10.25V13.6693V13.6762V13.6832V13.6901V13.6971V13.704V13.711V13.7179V13.7249V13.7318V13.7388V13.7457V13.7526V13.7596V13.7665V13.7735V13.7804V13.7873V13.7942V13.8012V13.8081V13.815V13.8219V13.8289V13.8358V13.8427V13.8496V13.8565V13.8634V13.8703V13.8772V13.8841V13.891V13.8978V13.9047V13.9116V13.9185V13.9254V13.9322V13.9391V13.9459V13.9528V13.9596V13.9665V13.9733V13.9802V13.987V13.9938V14.0006V14.0075V14.0143V14.0211V14.0279V14.0347V14.0414V14.0482V14.055V14.0618V14.0685V14.0753V14.0821V14.0888V14.0956V14.1023V14.109V14.1157V14.1225V14.1292V14.1359V14.1426V14.1492V14.1559V14.1626V14.1693V14.1759V14.1826V14.1892V14.1959V14.2025V14.2091V14.2157V14.2223V14.2289V14.2355V14.2421V14.2487V14.2552V14.2618V14.2683V14.2749V14.2814V14.2879V14.2944V14.3009V14.3074V14.3139V14.3204V14.3268V14.3333V14.3397V14.3461V14.3526V14.359V14.3654V14.3718V14.3782V14.3845V14.3909V14.3972V14.4036V14.4099V14.4162V14.4225V14.4288V14.4351V14.4414V14.4476V14.4539V14.4601V14.4664V14.4726V14.4788V14.485V14.4911V14.4973V14.5035V14.5096V14.5157V14.5219V14.528V14.5341V14.5401V14.5462V14.5523V14.5583V14.5643V14.5703V14.5763V14.5823V14.5883V14.5943V14.6002V14.6061V14.6121V14.618V14.6239V14.6297V14.6356V14.6414V14.6473V14.6531V14.6589V14.6647V14.6705V14.6762V14.682V14.6877V14.6934V14.6991V14.7048V14.7104V14.7161V14.7217V14.7273V14.733V14.7385V14.7441V14.7497V14.7552V14.7607V14.7662V14.7717V14.7772V14.7822H15.874C16.0274 14.7822 16.1468 14.9283 16.1468 15.1009V16.1301C16.1468 16.3094 16.0217 16.4489 15.874 16.4489H13.25V16.4535V16.4589V16.4642V16.4696V16.475V16.4805V16.4859V16.4914V16.4969V16.5024V16.5079V16.5134V16.5189V16.5245V16.5301V16.5357V16.5413V16.5469V16.5525V16.5582V16.5639V16.5696V16.5753V16.581V16.5867V16.5925V16.5982V16.604V16.6098V16.6156V16.6214V16.6273V16.6331V16.639V16.6449V16.6508V16.6567V16.6626V16.6686V16.6745V16.6805V16.6864V16.6924V16.6984V16.7045V16.7105V16.7165V16.7226V16.7287V16.7348V16.7409V16.747V16.7531V16.7592V16.7654V16.7715V16.7777V16.7839V16.7901V16.7963V16.8025V16.8087V16.815V16.8212V16.8275V16.8338V16.8401V16.8464V16.8527V16.859V16.8653V16.8717V16.878V16.8844V16.8908V16.8972V16.9036V16.91V16.9164V16.9228V16.9292V16.9357V16.9421V16.9486V16.9551V16.9616V16.9681V16.9746V16.9811V16.9876V16.9941V17.0007V17.0072V17.0138V17.0203V17.0269V17.0335V17.0401V17.0467V17.0533V17.0599V17.0665V17.0732V17.0798V17.0865V17.0931V17.0998V17.1064V17.1131V17.1198V17.1265V17.1332V17.1399V17.1466V17.1533V17.16V17.1668V17.1735V17.1803V17.187V17.1938V17.2005V17.2073V17.2141V17.2209V17.2276V17.2344V17.2412V17.248V17.2548V17.2616V17.2685V17.2753V17.2821V17.2889V17.2958V17.3026V17.3095V17.3163V17.3232V17.33V17.3369V17.3438V17.3506V17.3575V17.3644V17.3713V17.3782V17.3851V17.3919V17.3988V17.4057V17.4126V17.4196V17.4265V17.4334V17.4403V17.4472V17.4541V17.461V17.468V17.4749V17.4818V17.4888V17.4957V17.5026V17.5096V17.5165V17.5234V17.5304V17.5373V17.5443V17.5512V17.5578H16.7271C16.8806 17.5578 17 17.7039 17 17.8765V18.9057C17 19.085 16.8749 19.2244 16.7271 19.2244H5.27286C5.11937 19.2244 5 19.085 5 18.9057V17.8765C5 17.6972 5.12506 17.5578 5.27286 17.5578H12.75V17.5512V17.5443V17.5373V17.5304V17.5234V17.5165V17.5096V17.5026V17.4957V17.4888V17.4818V17.4749V17.468V17.461V17.4541V17.4472V17.4403V17.4334V17.4265V17.4196V17.4126V17.4057V17.3988V17.3919V17.3851V17.3782V17.3713V17.3644V17.3575V17.3506V17.3438V17.3369V17.33V17.3232V17.3163V17.3095V17.3026V17.2958V17.2889V17.2821V17.2753V17.2685V17.2616V17.2548V17.248V17.2412V17.2344V17.2276V17.2209V17.2141V17.2073V17.2005V17.1938V17.187V17.1803V17.1735V17.1668V17.16V17.1533V17.1466V17.1399V17.1332V17.1265V17.1198V17.1131V17.1064V17.0998V17.0931V17.0865V17.0798V17.0732V17.0665V17.0599V17.0533V17.0467V17.0401V17.0335V17.0269V17.0203V17.0138V17.0072V17.0007V16.9941V16.9876V16.9811V16.9746V16.9681V16.9616V16.9551V16.9486V16.9421V16.9357V16.9292V16.9228V16.9164V16.91V16.9036V16.8972V16.8908V16.8844V16.878V16.8717V16.8653V16.859V16.8527V16.8464V16.8401V16.8338V16.8275V16.8212V16.815V16.8087V16.8025V16.7963V16.7901V16.7839V16.7777V16.7715V16.7654V16.7592V16.7531V16.747V16.7409V16.7348V16.7287V16.7226V16.7165V16.7105V16.7045V16.6984V16.6924V16.6864V16.6805V16.6745V16.6686V16.6626V16.6567V16.6508V16.6449V16.639V16.6331V16.6273V16.6214V16.6156V16.6098V16.604V16.5982V16.5925V16.5867V16.581V16.5753V16.5696V16.5639V16.5582V16.5525V16.5469V16.5413V16.5357V16.5301V16.5245V16.5189V16.5134V16.5079V16.5024V16.4969V16.4914V16.4859V16.4805V16.475V16.4696V16.4642V16.4589V16.4535V16.4489H7.79058C7.63709 16.4489 7.51772 16.3028 7.51772 16.1301V15.1009C7.51772 14.9216 7.64278 14.7822 7.79058 14.7822H9.75V14.7772V14.7717V14.7662V14.7607V14.7552V14.7497V14.7441V14.7385V14.733V14.7273V14.7217V14.7161V14.7104V14.7048V14.6991V14.6934V14.6877V14.682V14.6762V14.6705V14.6647V14.6589V14.6531V14.6473V14.6414V14.6356V14.6297V14.6239V14.618V14.6121V14.6061V14.6002V14.5943V14.5883V14.5823V14.5763V14.5703V14.5643V14.5583V14.5523V14.5462V14.5401V14.5341V14.528V14.5219V14.5157V14.5096V14.5035V14.4973V14.4911V14.485V14.4788V14.4726V14.4664V14.4601V14.4539V14.4476V14.4414V14.4351V14.4288V14.4225V14.4162V14.4099V14.4036V14.3972V14.3909V14.3845V14.3782V14.3718V14.3654V14.359V14.3526V14.3461V14.3397V14.3333V14.3268V14.3204V14.3139V14.3074V14.3009V14.2944V14.2879V14.2814V14.2749V14.2683V14.2618V14.2552V14.2487V14.2421V14.2355V14.2289V14.2223V14.2157V14.2091V14.2025V14.1959V14.1892V14.1826V14.1759V14.1693V14.1626V14.1559V14.1492V14.1426V14.1359V14.1292V14.1225V14.1157V14.109V14.1023V14.0956V14.0888V14.0821V14.0753V14.0685V14.0618V14.055V14.0482V14.0414V14.0347V14.0279V14.0211V14.0143V14.0075V14.0006V13.9938V13.987V13.9802V13.9733V13.9665V13.9596V13.9528V13.9459V13.9391V13.9322V13.9254V13.9185V13.9116V13.9047V13.8978V13.891V13.8841V13.8772V13.8703V13.8634V13.8565V13.8496V13.8427V13.8358V13.8289V13.8219V13.815V13.8081V13.8012V13.7942V13.7873V13.7804V13.7735V13.7665V13.7596V13.7526V13.7457V13.7388V13.7318V13.7249V13.7179V13.711V13.704V13.6971V13.6901V13.6832V13.6762V13.6693V13.6667H5.27286C5.11937 13.6733 5 13.5272 5 13.3479Z" fill="#C4C4C4"/>
<path d="M3.6543 10.9998V5.18164H4.88441V9.98562H7.37873V10.9998H3.6543Z" fill="#0076A5"/>
<path d="M10.2559 10.9998H8.74165V9.94585H10.2047C10.5684 9.94585 10.8742 9.88145 11.1223 9.75266C11.3723 9.62198 11.5598 9.42028 11.6848 9.14755C11.8117 8.87293 11.8752 8.51876 11.8752 8.08505C11.8752 7.65513 11.8117 7.3038 11.6848 7.03107C11.5598 6.75835 11.3733 6.55759 11.1252 6.4288C10.8771 6.30001 10.5712 6.23562 10.2076 6.23562H8.71609V5.18164H10.2729C10.8581 5.18164 11.3619 5.29812 11.7843 5.53107C12.2066 5.76213 12.5314 6.09452 12.7587 6.52823C12.9879 6.96194 13.1025 7.48088 13.1025 8.08505C13.1025 8.69111 12.9879 9.21194 12.7587 9.64755C12.5314 10.0832 12.2047 10.4174 11.7786 10.6504C11.3543 10.8833 10.8468 10.9998 10.2559 10.9998ZM9.42347 5.18164V10.9998H8.19336V5.18164H9.42347ZM7.38654 8.2896V7.57369H10.2189V8.2896H7.38654Z" fill="#0076A5"/>
<path d="M13.7921 6.19585V5.18164H18.5705V6.19585H16.7892V10.9998H15.5733V6.19585H13.7921Z" fill="#0076A5"/>
<path d="M12 16.75L14 18.75L17.5 15" stroke="#7D7D7D" stroke-width="1.5" stroke-linecap="round" stroke-linejoin="round"/>
<path fill-rule="evenodd" clip-rule="evenodd" d="M3.6543 8V5.18164H4.88441V8H3.6543ZM16.7892 8V6.19585H18.5705V5.18164H13.7921V6.19585H15.5733V8H16.7892ZM13.1017 8C13.0914 7.43204 12.977 6.94146 12.7587 6.52823C12.5314 6.09452 12.2066 5.76213 11.7843 5.53107C11.3619 5.29812 10.8581 5.18164 10.2729 5.18164H9.42347H8.71609H8.19336V7.57369H7.38654V8H10.2189V7.57369H9.42347V6.23562H10.2076C10.5712 6.23562 10.8771 6.30001 11.1252 6.4288C11.3733 6.55759 11.5598 6.75835 11.6848 7.03107C11.8033 7.28559 11.8664 7.60857 11.8743 8H13.1017Z" fill="#21A2D5"/>
</svg>
