<svg width="26" height="22" viewBox="0 0 26 22" fill="none" xmlns="http://www.w3.org/2000/svg">
<rect width="22" height="22" fill="#F3F3F3"/>
<path d="M11 22C7.72441 22 5.05957 19.3351 5.05957 16.0596C5.05957 12.784 7.72441 10.1191 11 10.1191C12.0226 10.1191 13.0312 10.3834 13.9169 10.8836C14.2191 11.0542 14.3258 11.4375 14.1552 11.7398C13.9845 12.042 13.601 12.1486 13.2989 11.978C12.6014 11.5842 11.8065 11.3761 11 11.3761C8.41745 11.3761 6.31641 13.4771 6.31641 16.0597C6.31641 18.6422 8.41749 20.7432 11 20.7432C13.5824 20.7432 15.6835 18.6422 15.6835 16.0596C15.6835 15.7126 15.9649 15.4312 16.3119 15.4312C16.6589 15.4312 16.9403 15.7126 16.9403 16.0596C16.9403 19.3351 14.2755 22 11 22Z" fill="#C5C5C5"/>
<path d="M10.9999 18.2294C9.80345 18.2294 8.83008 17.256 8.83008 16.0595C8.83008 14.8631 9.80345 13.8896 10.9999 13.8896C12.1964 13.8896 13.1697 14.8631 13.1697 16.0595C13.1697 17.256 12.1964 18.2294 10.9999 18.2294Z" fill="#F5F5F5"/>
<path d="M10.9999 18.8583C9.45695 18.8583 8.20166 17.603 8.20166 16.0601C8.20166 14.5171 9.45699 13.2617 10.9999 13.2617C12.5428 13.2617 13.7982 14.5171 13.7982 16.06C13.7982 17.603 12.5428 18.8583 10.9999 18.8583ZM10.9999 14.5186C10.1499 14.5186 9.4585 15.2101 9.4585 16.0601C9.4585 16.91 10.1499 17.6015 10.9999 17.6015C11.8499 17.6015 12.5413 16.91 12.5413 16.0601C12.5413 15.2101 11.8499 14.5186 10.9999 14.5186Z" fill="#C5C5C5"/>
<path d="M13.6064 12.0604C13.5017 12.0604 13.3956 12.0342 13.298 11.9791C12.5992 11.5845 11.8045 11.376 10.9999 11.376C10.1952 11.376 9.40051 11.5845 8.70176 11.9791C8.40158 12.1485 8.02087 12.0446 7.84853 11.7461L5.34602 7.41155C5.17247 7.11098 5.27547 6.72663 5.57604 6.55312C5.8766 6.37961 6.26096 6.48257 6.43447 6.78313L8.64233 10.6072C9.38376 10.2866 10.1879 10.1191 10.9999 10.1191C11.812 10.1191 12.6161 10.2867 13.3575 10.6072L15.4812 6.92893V1.25684H14.3726C14.0256 1.25684 13.7442 0.975477 13.7442 0.628418C13.7442 0.281359 14.0255 0 14.3726 0H16.1096C16.4566 0 16.738 0.281359 16.738 0.628418V7.09736C16.738 7.20766 16.709 7.31607 16.6538 7.41159L14.1513 11.7461C14.0348 11.9476 13.8236 12.0604 13.6064 12.0604Z" fill="#C5C5C5"/>
<path d="M10.9998 10.7481C11.0174 10.7481 11.0347 10.7492 11.0522 10.7494V0.628906H5.89014V7.09785L8.39272 11.4324C9.16302 10.9974 10.052 10.7481 10.9998 10.7481Z" fill="#F5F5F5"/>
<path d="M8.39324 12.0604C8.17595 12.0604 7.9648 11.9476 7.84844 11.7462L5.34594 7.41164C5.29077 7.31612 5.26172 7.20771 5.26172 7.09741V0.628418C5.26172 0.281359 5.54312 0 5.89014 0H11.0522C11.3992 0 11.6806 0.281359 11.6806 0.628418V10.7489C11.6806 10.9167 11.6135 11.0775 11.4942 11.1956C11.375 11.3136 11.2145 11.38 11.0456 11.3774C11.0323 11.3772 11.0191 11.3768 11.006 11.3764L10.9969 11.3761C10.195 11.3761 9.40038 11.5846 8.70162 11.9792C8.604 12.0342 8.49791 12.0604 8.39324 12.0604ZM6.51855 6.92897L8.6422 10.6073C9.20771 10.3627 9.8097 10.2073 10.4238 10.1472V1.25684H6.51855V6.92897Z" fill="#C5C5C5"/>
<path fill-rule="evenodd" clip-rule="evenodd" d="M15.1347 12.9997L15.4899 10.835H13.7853L13.4302 12.9997H12.0665L12.4217 10.835H11.2271L11.4529 9.47132H12.6454L12.9195 7.80087H14.2831L14.0091 9.47132H15.7136L15.9877 7.80087H14.2831L14.5068 6.43723H16.2114L16.5665 4.27246H17.9302L17.575 6.43723H18.7739L18.5438 7.80087H17.3513L17.0772 9.47132H18.2711L18.0452 10.835H16.8535L16.4984 12.9997H15.1347ZM13.1432 6.43723H11.9557L11.7256 7.80087H12.9195L13.1432 6.43723Z" fill="#0076A5"/>
<path d="M14.2831 7.80087L14.5068 6.43723H13.1432L12.9195 7.80087H14.2831Z" fill="#0076A5"/>
<path d="M14.862 4.27246H13.4984L13.1432 6.43723H14.5068L14.862 4.27246Z" fill="#0076A5"/>
<path fill-rule="evenodd" clip-rule="evenodd" d="M17.1545 9L17.3513 7.80087H18.5438L18.7739 6.43723H17.575L17.9301 4.27246H16.5665L16.2113 6.43723H14.5068L14.8619 4.27246H13.4983L13.1432 6.43723H11.9557L11.7256 7.80087H12.9194L12.7227 9H14.0863L14.2831 7.80087H15.9876L15.7909 9H17.1545Z" fill="#21A2D5"/>
<path d="M16 18.75L18 20.75L21.5 17" stroke="#7D7D7D" stroke-width="1.5" stroke-linecap="round" stroke-linejoin="round"/>
</svg>
