<svg width="22" height="22" viewBox="0 0 22 22" fill="none" xmlns="http://www.w3.org/2000/svg">
<path d="M16.8887 0.168945C16.3705 0.168945 15.9483 0.579753 15.9483 1.08398V3.95971C15.9483 4.46394 16.3705 4.87475 16.8887 4.87475C17.4069 4.87475 17.829 4.46394 17.829 3.95971V1.08398C17.829 0.579753 17.4068 0.168945 16.8887 0.168945ZM21.8206 2.82062V7.65715V21.8305H0.173828V7.63845V2.82062H3.11V3.97841C3.11 5.04279 3.99278 5.92051 5.10583 5.92051C6.19965 5.92042 7.10157 5.04279 7.10157 3.97841V2.82062H14.8929V3.97841C14.8929 5.04279 15.7948 5.92051 16.8887 5.92051C17.9825 5.92051 18.8845 5.04288 18.8845 3.97841V2.82062H21.8206ZM20.65 7.65715H1.34444V20.6541H16.3513L20.6499 16.5272L20.65 7.65715ZM5.10574 0.168945C4.58765 0.168945 4.16539 0.579753 4.16539 1.08398V3.95971C4.16539 4.46394 4.58757 4.87475 5.10574 4.87475C5.62391 4.87475 6.04609 4.46394 6.04609 3.95971V1.08398C6.04609 0.579753 5.62391 0.168945 5.10574 0.168945ZM16.8887 0.168945C16.3705 0.168945 15.9483 0.579753 15.9483 1.08398V3.95971C15.9483 4.46394 16.3705 4.87475 16.8887 4.87475C17.4069 4.87475 17.829 4.46394 17.829 3.95971V1.08398C17.829 0.579753 17.4068 0.168945 16.8887 0.168945Z" fill="#595959"/>
<path d="M5 10.3529V11.4926C5 11.6912 5.11937 11.8529 5.27286 11.8456H16.7271C16.8749 11.8456 17 11.6912 17 11.4926V10.3529C17 10.1618 16.8806 10 16.7271 10H5.27286C5.12506 10 5 10.1544 5 10.3529Z" fill="#0076A5"/>
<path d="M7.51772 13.4338V14.5735C7.51772 14.7647 7.63709 14.9265 7.79058 14.9265H15.874C16.0217 14.9265 16.1468 14.7721 16.1468 14.5735V13.4338C16.1468 13.2426 16.0274 13.0809 15.874 13.0809H7.79058C7.64278 13.0809 7.51772 13.2353 7.51772 13.4338Z" fill="#0076A5"/>
<path d="M5 16.5074V17.6471C5 17.8456 5.11937 18 5.27286 18H16.7271C16.8749 18 17 17.8456 17 17.6471V16.5074C17 16.3162 16.8806 16.1544 16.7271 16.1544H5.27286C5.12506 16.1544 5 16.3088 5 16.5074Z" fill="#0076A5"/>
</svg>
