<svg width="22" height="22" viewBox="0 0 22 22" fill="none" xmlns="http://www.w3.org/2000/svg">
<g clip-path="url(#clip0_393_4359)">
<path d="M9.47857 10.7656V14.5103H7.13815L5.73389 12.638L7.13815 10.7656H9.47857Z" fill="#E6E9EE"/>
<path d="M7.13833 10.7656V14.5103H2.6915L0.351074 12.638L2.6915 10.7656H7.13833Z" fill="#E6E9EE"/>
<path d="M19.3086 5.61719H17.9043V9.36187H19.3086L21.649 7.48955L19.3086 5.61719Z" fill="#E6E9EE"/>
<path d="M12.5215 5.61719H17.9045L20.2449 7.48955L17.9045 9.36187H12.5215V5.61719Z" fill="#E6E9EE"/>
<path d="M9.47857 5.61719V9.36187H7.13815L5.73389 7.48955L7.13815 5.61719H9.47857Z" fill="#E6E9EE"/>
<path d="M7.13833 5.61719V9.36187H2.6915L0.351074 7.48955L2.6915 5.61719H7.13833Z" fill="#E6E9EE"/>
<path d="M11 18.5508L12.1945 19.4869L11 21.6486V18.5508Z" fill="#C5C5C5"/>
<path d="M9.80566 19.4869L10.659 18.5508L11.5123 19.4869L11.0002 21.6486L9.80566 19.4869Z" fill="#E8E8E8"/>
<path d="M11.5122 16.2656L13.4575 17.2018L12.1946 19.487H11.5122V16.2656Z" fill="#127BA4"/>
<path d="M12.0531 17.2018L11.512 19.487H9.80533L8.54248 17.2018L10.2978 16.2656L12.0531 17.2018Z" fill="#21A2D5"/>
<path d="M12.0532 5.14941L13.4574 4.21325V2.80899C13.4574 1.45199 12.357 0.351562 11 0.351562L12.0532 5.14941Z" fill="#0076A5"/>
<path d="M8.54248 2.80899C8.54248 1.45156 9.64248 0.351562 10.9999 0.351562C11.5817 0.351562 12.0531 1.45204 12.0531 2.80899V5.14941L8.55559 4.21325H8.54248V2.80899Z" fill="#21A2D5"/>
<path d="M11.1172 4.68066L13.4576 5.61682V17.2019H12.0534L11.1172 4.68066Z" fill="#006085"/>
<path d="M10.064 4.68066L12.0533 5.61682V17.2019H11.0001L10.064 4.68066Z" fill="#21A2D5"/>
<path d="M8.55559 5.61682L10.9999 4.68066V17.2019H8.54248V5.61682H8.55559Z" fill="#E6E9EE"/>
<path d="M12.0534 5.61711H13.4576V4.21289H12.0534L11.1172 4.915L12.0534 5.61711Z" fill="#C5C5C5"/>
<path d="M12.0531 4.21289H8.54248V5.61715H12.0531V4.21289Z" fill="#DCDCDC"/>
<path d="M21.8682 7.21527L19.5278 5.34295C19.4655 5.29319 19.3882 5.26599 19.3085 5.26599H13.8085V2.80848C13.8085 2.05833 13.5163 1.353 12.9859 0.822594C12.4554 0.292102 11.7501 -4.2964e-05 11 4.73922e-09C9.45141 4.73922e-09 8.19148 1.25989 8.19148 2.80852V5.26595H2.69148C2.61177 5.26595 2.53443 5.29311 2.47216 5.34291L0.131785 7.21527C0.0485117 7.28183 0 7.38272 0 7.48937C0 7.59602 0.0485117 7.69691 0.131785 7.76346L2.47221 9.63579C2.53447 9.68554 2.61177 9.71274 2.69152 9.71274H7.13831C7.33219 9.71274 7.48937 9.5556 7.48937 9.36169C7.48937 9.16777 7.33219 9.01063 7.13831 9.01063H2.81462L0.913043 7.48937L2.81462 5.9681H8.19148V10.4149H2.69148C2.61177 10.4149 2.53443 10.4421 2.47216 10.4919L0.131785 12.3642C0.0485117 12.4307 0 12.5317 0 12.6383C0 12.745 0.0485117 12.8459 0.131785 12.9124L2.47221 14.7847C2.53447 14.8345 2.61177 14.8617 2.69152 14.8617H8.19152V17.2021C8.19152 17.2615 8.2066 17.3199 8.23535 17.3719L9.49657 19.6541C9.49721 19.6553 10.6928 21.8187 10.6928 21.8187C10.7546 21.9306 10.8723 22 11.0001 22C11.1279 22 11.2456 21.9305 11.3074 21.8187L12.5027 19.6557C12.5038 19.6538 13.7648 17.3719 13.7648 17.3719C13.7935 17.3199 13.8086 17.2615 13.8086 17.2021V9.71278H19.3086C19.3883 9.71278 19.4657 9.68563 19.5279 9.63583L21.8683 7.76351C21.9516 7.69691 22.0001 7.59602 22.0001 7.48941C22.0001 7.3828 21.9515 7.28183 21.8682 7.21527ZM11 0.702109C11.5626 0.702109 12.0916 0.921207 12.4894 1.31905C12.8872 1.7169 13.1064 2.2458 13.1064 2.80844V3.86169H8.89359V2.80852C8.89363 1.64704 9.83855 0.702109 11 0.702109ZM8.89363 4.56384H13.1064V5.26595H8.89363V4.56384ZM10.6489 5.9681V13.4575C10.6489 13.6514 10.8061 13.8085 11 13.8085C11.1939 13.8085 11.3511 13.6514 11.3511 13.4575V5.9681H13.1064V16.8511H11.3511V14.8617C11.3511 14.6678 11.1939 14.5106 11 14.5106C10.8061 14.5106 10.6489 14.6678 10.6489 14.8617V16.8511H8.89363V5.9681H10.6489ZM11.9875 19.1362H10.0125L9.13769 17.5532H12.8624L11.9875 19.1362ZM2.81462 14.1596L0.913043 12.6383L2.81462 11.117H8.19148V14.1596H2.81462V14.1596ZM11 20.9231L10.4005 19.8383H11.5995L11 20.9231ZM19.1854 9.01063H13.8085V5.96806H19.1854L21.087 7.48932L19.1854 9.01063Z" fill="#595959"/>
</g>
<defs>
<clipPath id="clip0_393_4359">
<rect width="22" height="22" fill="white"/>
</clipPath>
</defs>
</svg>
