<svg width="40" height="40" viewBox="0 0 40 40" fill="none" xmlns="http://www.w3.org/2000/svg">
<path d="M20 0C8.95437 0 0 8.95437 0 20C0 31.0456 8.95437 40 20 40C31.0456 40 40 31.0456 40 20C40 8.95437 31.0456 0 20 0Z" fill="#F3F3F3"/>
<path fill-rule="evenodd" clip-rule="evenodd" d="M20.7296 15.5471L30.5244 7.61799C31.031 7.36472 31.6388 7.46633 32.044 7.87156C32.4493 8.27679 32.4661 8.79984 32.2973 9.13761L24.3746 19.2213C24.4214 19.4832 24.4458 19.7529 24.4458 20.0283C24.4458 22.546 22.4047 24.5871 19.887 24.5871C17.3692 24.5871 15.3281 22.546 15.3281 20.0283C15.3281 17.5105 17.3692 15.4694 19.887 15.4694C20.1749 15.4694 20.4565 15.4961 20.7296 15.5471Z" fill="#FCAD00"/>
<path d="M22 20C22 21.1046 21.1046 22 20 22C18.8954 22 18 21.1046 18 20C18 18.8954 18.8954 18 20 18C21.1046 18 22 18.8954 22 20Z" fill="white"/>
<path d="M22 20C22 21.1046 21.1046 22 20 22C18.8954 22 18 21.1046 18 20C18 18.8954 18.8954 18 20 18C21.1046 18 22 18.8954 22 20Z" fill="white"/>
<path d="M22 20C22 21.1046 21.1046 22 20 22C18.8954 22 18 21.1046 18 20C18 18.8954 18.8954 18 20 18C21.1046 18 22 18.8954 22 20Z" fill="white"/>
<path d="M22 20C22 21.1046 21.1046 22 20 22C18.8954 22 18 21.1046 18 20C18 18.8954 18.8954 18 20 18C21.1046 18 22 18.8954 22 20Z" fill="white"/>
<path d="M22 20C22 21.1046 21.1046 22 20 22C18.8954 22 18 21.1046 18 20C18 18.8954 18.8954 18 20 18C21.1046 18 22 18.8954 22 20Z" fill="white"/>
<path d="M22 20C22 21.1046 21.1046 22 20 22C18.8954 22 18 21.1046 18 20C18 18.8954 18.8954 18 20 18C21.1046 18 22 18.8954 22 20Z" fill="white"/>
<path d="M7.89072 8.66534C1.53834 15.4896 3.06298 22.8196 4.3334 25.6002L4.58744 25.3477L4.57569 25.2775C4.06416 22.2264 3.11151 16.5441 9.41524 11.6987C13.8873 8.26116 19.9178 9.76086 22.3741 10.9404L28.4724 6.13775C21.3577 1.84111 12.969 3.20987 7.89072 8.66534Z" fill="#127BA4"/>
<path d="M28.7264 20.2925C28.7264 19.5346 28.3877 18.6074 28.2183 18.2704L33.8083 11.1932C34.8248 12.7093 36.0953 15.2385 36.3493 18.2704C36.5526 20.6969 36.0952 23.3256 35.8411 24.3366L28.4725 22.3141C28.7264 21.3031 28.7264 21.0503 28.7264 20.2925Z" fill="#127BA4"/>
<path d="M13.9636 27.7922C13.9481 27.7922 13.9327 27.8077 13.9018 27.8077C13.8864 27.8077 13.871 27.7922 13.8401 27.7922H13.9636Z" fill="#E6E9EE"/>
<path d="M21.8035 29.3665C20.0287 31.7895 17.1427 33.3791 13.9017 33.3791C10.6608 33.3791 7.79024 31.8049 6 29.3665C7.38898 27.8849 9.27181 27.0978 10.846 26.6965C10.7071 27.8232 11.2935 29.3356 11.309 29.2893C11.8954 27.9312 13.8863 27.8077 13.8863 27.8077C13.8863 27.8077 15.8772 27.9158 16.4791 29.2893C16.4945 29.3202 17.0809 27.8232 16.942 26.6965C18.5316 27.0978 20.4145 27.8849 21.8035 29.3665Z" fill="#04506C"/>
<path d="M16.3402 25.6624C16.3402 25.863 16.2168 26.9279 13.9635 27.7922H13.8401C11.5868 26.9279 11.4634 25.863 11.4634 25.6624C11.4788 25.2612 11.5714 24.8599 11.7412 24.4895C12.3585 25.184 13.0993 25.647 13.9018 25.647C14.6889 25.647 15.4451 25.1994 16.0624 24.4895C16.2322 24.8599 16.3402 25.2612 16.3402 25.6624Z" fill="white"/>
<path d="M15.2444 28.1471L14.7506 29.1349H13.0529L12.5591 28.1471C13.2381 27.8539 13.9018 27.8076 13.9018 27.8076C13.9018 27.8076 14.5808 27.8539 15.2444 28.1471Z" fill="#F1543F"/>
<path d="M12.5281 33.2865C12.9756 33.3482 13.4386 33.3791 13.9171 33.3791C14.38 33.3791 14.843 33.3482 15.306 33.2865L14.7659 29.1504H13.0682L12.5281 33.2865Z" fill="#FF7058"/>
<path d="M16.34 25.6318C16.34 25.6318 16.4481 26.8665 13.9016 27.8079C13.9016 27.8079 15.8925 27.9159 16.4944 29.2895C16.5098 29.3512 17.6673 26.3572 16.34 25.6318Z" fill="white"/>
<path d="M11.4633 25.6318C10.1515 26.3572 11.2935 29.3358 11.3244 29.2895C11.9108 27.9314 13.9171 27.8079 13.9171 27.8079C11.3553 26.8665 11.4633 25.6318 11.4633 25.6318Z" fill="white"/>
<path d="M16.1859 24.7982C15.5377 25.4927 14.766 25.9402 13.9018 25.9402C13.0375 25.9402 12.2659 25.4927 11.6177 24.7982C11.6485 24.6901 11.6948 24.5821 11.7411 24.4895C12.3585 25.184 13.0993 25.647 13.9018 25.647C14.7043 25.647 15.4451 25.1994 16.0624 24.4895C16.1087 24.5821 16.155 24.6901 16.1859 24.7982Z" fill="#E8E8E8"/>
<path d="M18.1149 22.4369C17.7908 22.9771 17.2969 23.3012 16.9266 23.2394C16.1858 24.613 15.1054 25.6316 13.9017 25.6316C12.6979 25.6316 11.6176 24.5976 10.8768 23.2394C10.5064 23.2857 10.0125 22.9771 9.68844 22.4369C9.30261 21.8042 9.28718 21.1097 9.65758 20.8782C9.75017 20.8319 9.84277 20.801 9.9508 20.8164C10.1977 21.4492 10.5373 21.835 10.5373 21.835C10.1823 19.875 11.633 19.659 11.3861 17.7761C11.3861 17.7761 12.2966 19.7979 14.9048 18.378L14.7042 18.7638C18.3464 17.9459 17.1272 22.2363 17.0963 22.3443C17.513 21.8196 17.7754 21.2949 17.9297 20.8164C17.9914 20.8164 18.0686 20.8473 18.1149 20.8782C18.5162 21.0942 18.5007 21.8042 18.1149 22.4369Z" fill="white"/>
<path d="M16.0006 15.7391C16.2938 15.7083 16.7722 15.9706 16.7722 15.9706C15.4604 14.4736 13.3152 15.4305 13.3152 15.4305C14.0406 14.8132 14.6887 14.8749 14.6887 14.8749C11.6176 14.4119 11.0928 16.2484 11.0928 16.2484C10.9539 16.0324 10.9539 15.7237 10.9694 15.5694C10.7533 15.9398 10.9848 16.6806 10.9848 16.6806C10.7687 16.1404 10.0125 16.233 10.0125 16.233C10.6607 16.341 10.7687 16.7423 10.7687 16.7423C9.14827 17.3442 9.42607 19.0264 9.42607 19.0264L9.81189 18.5634C9.33347 20.4 10.5527 21.8198 10.5527 21.8198C10.1977 19.8598 11.6484 19.6437 11.4015 17.7609C11.4015 17.7609 12.3121 19.7826 14.9202 18.3628L14.7196 18.7486C18.4081 17.9152 17.1117 22.3445 17.1117 22.3445C18.4235 20.6777 18.2229 18.9647 18.2229 18.9647L18.3772 19.582C18.7939 16.804 16.0006 15.7391 16.0006 15.7391Z" fill="#004360"/>
</svg>
