<svg width="40" height="40" viewBox="0 0 40 40" fill="none" xmlns="http://www.w3.org/2000/svg">
<path d="M20 0C8.95437 0 0 8.95437 0 20C0 31.0456 8.95437 40 20 40C31.0456 40 40 31.0456 40 20C40 8.95437 31.0456 0 20 0Z" fill="#F3F3F3"/>
<path d="M19.6785 33.6569C13.675 33.6569 9.74419 29.9271 7.6001 27.6046C7.6001 24.0858 11.3165 16.413 19.6785 16.6259C29.3386 16.8719 32.1857 23.9919 32.4001 27.6046C30.1845 30.2789 26.9684 33.6569 19.6785 33.6569Z" fill="white"/>
<path d="M19.6835 32.5651C14.3692 32.5651 10.8897 29.3406 8.9917 27.3328C8.9917 24.2907 12.2815 17.6576 19.6835 17.8416C28.2347 18.0543 30.7549 24.2096 30.9447 27.3328C28.9835 29.6448 26.1366 32.5651 19.6835 32.5651Z" fill="url(#paint0_linear_2_4259)"/>
<path fill-rule="evenodd" clip-rule="evenodd" d="M20.0629 6.3999C24.5003 6.3999 28.0977 9.85927 28.0977 14.1266C28.0977 18.4938 24.5003 21.8534 20.0629 21.8534C15.6257 21.8534 12.0283 18.4938 12.0283 14.1266C12.0283 9.85927 15.6257 6.3999 20.0629 6.3999Z" fill="white"/>
<path fill-rule="evenodd" clip-rule="evenodd" d="M20.0339 7.73877C23.6866 7.73877 26.6478 10.5864 26.6478 14.099C26.6478 17.6939 23.6866 20.4593 20.0339 20.4593C16.3814 20.4593 13.4202 17.6939 13.4202 14.099C13.4202 10.5864 16.3814 7.73877 20.0339 7.73877Z" fill="url(#paint1_linear_2_4259)"/>
<defs>
<linearGradient id="paint0_linear_2_4259" x1="19.9682" y1="17.8379" x2="25.0194" y2="31.5411" gradientUnits="userSpaceOnUse">
<stop stop-color="#127BA4"/>
<stop offset="1" stop-color="#044B69"/>
</linearGradient>
<linearGradient id="paint1_linear_2_4259" x1="13.4202" y1="20.4593" x2="13.4202" y2="7.73877" gradientUnits="userSpaceOnUse">
<stop stop-color="#DA6700"/>
<stop offset="1" stop-color="#FFB400"/>
</linearGradient>
</defs>
</svg>
