<svg width="22" height="22" viewBox="0 0 22 22" fill="none" xmlns="http://www.w3.org/2000/svg">
<g clip-path="url(#clip0_393_4393)">
<path d="M16 20H1.5V1.73282H16V3L17.3657 1.2399C17.2728 0.699012 16.8027 0.287109 16.2354 0.287109H1.14821C0.514093 0.287109 0 0.801203 0 1.43532V20.5638C0 21.1979 0.514093 21.712 1.14821 21.712H16.2354C16.8695 21.712 17.3836 21.1979 17.3836 20.5638V12.1737L16 14V20Z" fill="#595959"/>
<path d="M10.729 5.64872C10.3333 5.15315 9.61098 5.07209 9.11526 5.46761L6.50376 7.55207L5.71402 6.76249C5.26568 6.31415 4.53863 6.31415 4.09022 6.76249C3.6418 7.21082 3.6418 7.93787 4.09022 8.38629L5.60578 9.90185C5.82869 10.1248 6.12271 10.2382 6.41795 10.2382C6.67025 10.2382 6.92347 10.1555 7.13398 9.98743L10.5478 7.26249C11.0435 6.86682 11.1246 6.14429 10.729 5.64872Z" fill="#21A2D5"/>
<path d="M9.11518 12.8875L6.50369 14.972L5.71402 14.1824C5.26568 13.7339 4.53863 13.734 4.09022 14.1824C3.6418 14.6307 3.6418 15.3577 4.09022 15.8062L5.60578 17.3218C5.82869 17.5447 6.12263 17.6582 6.41795 17.6582C6.67025 17.6582 6.92347 17.5753 7.13398 17.4074L10.5478 14.6824C11.0435 14.2867 11.1246 13.5643 10.729 13.0687C10.3332 12.5731 9.6109 12.492 9.11518 12.8875Z" fill="#595959"/>
<path d="M21.188 0.991211C20.99 0.991211 20.7881 1.0647 20.6238 1.22889L15.1592 6.69362C14.8911 6.96161 14.7008 7.29735 14.6085 7.66501L14.0222 10.0002C13.9947 10.1092 14.0042 10.2268 14.0602 10.3241C14.1384 10.4599 14.2789 10.5358 14.4243 10.5358C14.4582 10.5358 14.4925 10.5316 14.5262 10.5231L16.8765 9.93296C17.2442 9.84064 17.5799 9.65035 17.8479 9.38228L21.1772 6.05299C21.7039 5.52627 21.9999 4.81185 21.9999 4.06689V1.79886C21.9998 1.31302 21.6023 0.991211 21.188 0.991211Z" fill="#006085"/>
</g>
<defs>
<clipPath id="clip0_393_4393">
<rect width="22" height="22" fill="white"/>
</clipPath>
</defs>
</svg>
